<?xml version="1.0" encoding="UTF-8" standalone="no"?>
<!-- Created with Inkscape (http://www.inkscape.org/) -->

<svg
   version="1.1"
   id="svg1"
   width="1200"
   height="1200"
   viewBox="0 0 1200 1200"
   sodipodi:docname="avatar.png.2024_10_29_18_48_18.0.svg"
   inkscape:version="1.4 (86a8ad7, 2024-10-11)"
   xmlns:inkscape="http://www.inkscape.org/namespaces/inkscape"
   xmlns:sodipodi="http://sodipodi.sourceforge.net/DTD/sodipodi-0.dtd"
   xmlns="http://www.w3.org/2000/svg"
   xmlns:svg="http://www.w3.org/2000/svg">
  <defs
     id="defs1" />
  <sodipodi:namedview
     id="namedview1"
     pagecolor="#505050"
     bordercolor="#ffffff"
     borderopacity="1"
     inkscape:showpageshadow="0"
     inkscape:pageopacity="0"
     inkscape:pagecheckerboard="1"
     inkscape:deskcolor="#d1d1d1"
     showgrid="false"
     inkscape:zoom="0.26280802"
     inkscape:cx="764.81684"
     inkscape:cy="570.75884"
     inkscape:window-width="1920"
     inkscape:window-height="1057"
     inkscape:window-x="1358"
     inkscape:window-y="-8"
     inkscape:window-maximized="1"
     inkscape:current-layer="svg1" />
  <g
     id="g18"
     transform="matrix(1.2116095,0,0,1.3134098,-124.2209,-202.1012)">
    <path
       style="display:inline;fill:#1794d1;fill-opacity:1"
       d="m 200.39942,750.50038 c -10.42374,-39.1421 -14.79377,-56.18086 -19.15873,-74.69984 -7.02501,-29.80466 -16.95047,-78.73936 -19.0661,-94 -0.49561,-3.575 -2.26419,-15.725 -3.93017,-27 -7.68204,-51.99029 -9.86848,-104.54983 -5.48861,-131.94002 l 0.59831,-3.74163 19.14765,-4.22403 c 36.04652,-7.95197 48.16186,-10.81075 63.14764,-14.90054 8.25,-2.25152 17.25,-4.57927 20,-5.17278 18.85175,-4.06862 112.94696,-33.29933 150.61703,-46.78923 l 13.61704,-4.87635 -3.70887,14.57229 c -2.03988,8.01476 -4.39349,17.27229 -5.23025,20.57229 -6.02338,23.75496 -9.82765,34.0072 -15.77036,42.5 -1.85305,2.64822 -18.02459,35.61857 -18.02459,36.74834 0,0.365 -2.51906,5.59272 -5.59791,11.61716 -3.07884,6.02444 -6.24417,13.24424 -7.03405,16.04401 -3.41418,12.10168 -4.33318,16.55053 -4.97639,24.09049 -0.65555,7.6847 -0.92993,8.37442 -6.96164,17.5 -15.0793,22.81397 -25.11259,31.59722 -41.93001,36.70598 -6.45962,1.96229 -15.71884,6.64422 -17.55983,8.87914 -0.79209,0.96158 -3.24017,3.04233 -5.44017,4.62389 -15.78219,11.34566 -19.14047,17.20653 -24.18272,42.20377 -2.7683,13.724 -3.63013,15.54343 -13.30441,28.08722 -8.747,11.34146 -12.04269,17.02177 -22.33757,38.5 -9.88567,20.62449 -14.54501,33.73698 -21.63349,60.88186 -1.63471,6.26003 -3.11529,11.52496 -3.29018,11.69984 -0.17488,0.17488 -1.30061,-3.37196 -2.50162,-7.88186 z"
       id="path7"
       inkscape:label="blue"
       sodipodi:nodetypes="ssssscsssscsssssssssssssssss" />
    <path
       style="display:inline;fill:#58e6fd"
       d="m 488.83795,1019.183 c -0.1037,-0.089 -38.43854,-0.4064 -85.18854,-0.7061 -80.05358,-0.5132 -95.02773,-1.0142 -85,-2.8439 21.31997,-3.89 595.01151,-2.4624 580.36796,1.4442 -4.54041,1.2113 -408.79854,3.2867 -410.17942,2.1058 z M 342.07744,993.11124 c -2.35519,-6.19461 -3.17152,-269.72087 -0.85484,-275.95484 1.17535,-3.16276 1.35947,-3.1708 100.92681,-4.40603 179.7302,-2.22972 428.18975,-0.19116 431.92039,3.54383 2.59721,2.60023 1.68308,270.1587 -0.94664,277.0754 -1.02844,2.70498 -3.45121,3.23505 -4.32915,0.94715 -1.63224,-4.25353 -2.57053,-75.10068 -2.61589,-197.51621 l -0.0287,-77.5 -6.75,0.13414 c -60.10632,1.19452 -103.54411,1.44205 -252.25,1.43745 -148.40611,-0.005 -196.58628,-0.27876 -251.23895,-1.42968 -8.27692,-0.1743 -7.58022,-3.27312 -6.6005,29.35809 0.45411,15.125 0.57671,43.025 0.27244,62 -0.30428,18.975 -0.71553,62.85 -0.9139,97.5 -0.34826,60.8331 -0.85728,81.83946 -2.07615,85.67978 -0.85357,2.68935 -3.34428,2.20991 -4.51491,-0.86908 z"
       id="path6"
       inkscape:label="cyan" />
    <path
       style="display:inline;fill:#fd003a;fill-opacity:1"
       d="m 998.73643,710.55054 c -5.874,-17.05607 -22.48878,-49.3622 -31.97259,-62.16816 -10.55379,-14.25077 -12.61469,-17.38697 -12.62727,-19.21582 -0.13574,-19.73003 -9.31539,-39.33569 -23.35325,-49.87729 -2.12635,-1.59676 -5.25013,-4.19609 -6.94173,-5.77628 -3.7018,-3.458 -10.88919,-7.20144 -19.69218,-10.25636 -12.14235,-4.21379 -14.18871,-5.51805 -23.48918,-14.97095 -13.7271,-13.95206 -24.50439,-30.47509 -24.53049,-37.6085 -0.0445,-12.1581 -3.79785,-25.80875 -10.87673,-39.55772 -2.25698,-4.38364 -4.1036,-8.24288 -4.1036,-8.5761 0,-1.64174 -16.85195,-35.86237 -20.66958,-41.97295 -1.28173,-2.05157 -2.33042,-3.94427 -2.33042,-4.20599 0,-0.26173 -1.31165,-2.70042 -2.91477,-5.41933 -1.90464,-3.23027 -4.71014,-11.8228 -8.09536,-24.794 -12.15902,-46.58986 -11.082,-41.50173 -8.64442,-40.8386 1.185,0.32237 9.12955,3.22987 17.65455,6.4611 39.78215,15.07864 73.38168,26.96104 104.5,36.95617 36.00612,11.56509 47.03091,14.91063 62.90779,19.08975 8.30071,2.18492 19.3672,5.10868 24.5922,6.49724 5.225,1.38856 15.0864,3.63932 21.9141,5.00169 6.8278,1.36237 12.6069,2.66972 12.8424,2.90522 0.5215,0.52154 -1.2683,30.52414 -3.2855,55.07688 -5.3094,64.62156 -14.0419,125.43744 -26.5638,185 -3.8241,18.18949 -11.9655,53.5 -12.3353,53.5 -0.097,0 -0.99039,-2.3625 -1.98487,-5.25 z"
       id="path5"
       inkscape:label="red"
       sodipodi:nodetypes="sssssssssssssssssssssssss" />
    <path
       style="display:inline;fill:#595f67"
       d="m 234.14941,989.70417 c -11.98746,-4.25061 -23.42608,-10.6623 -29.55875,-16.56856 -12.05202,-11.60707 -23.97409,-43.23613 -21.42308,-56.83507 4.01964,-21.42787 10.64437,-39.61189 24.96878,-68.53606 11.77334,-23.77296 11.12726,-22.38065 17.15242,-36.96394 8.73895,-21.15176 16.66293,-43.9035 19.48456,-55.94506 1.07224,-4.57592 3.15834,-8.92287 7.19315,-14.98887 10.73041,-16.1323 16.72459,-20.80866 27.87037,-21.74309 l 6.8526,-0.57449 3.47997,3.9713 c 1.91399,2.18421 4.70626,5.42429 6.20505,7.20017 3.75103,4.44451 4.84037,3.16041 2.66398,-3.14023 -1.00307,-2.90385 -1.84945,-6.85473 -1.88085,-8.77973 -0.0314,-1.925 -0.5127,-5.47634 -1.06956,-7.89186 -1.3588,-5.89418 4.25564,-33.10034 10.75337,-52.10814 15.05689,-44.04593 60.34748,-67.09849 86.57819,-44.06763 3.59943,3.16034 5.31913,6.18762 8.84352,15.56763 5.78881,15.4067 14.39565,25.94262 26.11288,31.96562 4.00037,2.05631 9.14913,5.26776 11.4417,7.13656 2.29256,1.8688 4.62292,3.39782 5.17857,3.39782 0.55565,0 1.60716,0.5625 2.33669,1.25 0.72952,0.6875 5.14917,4.60992 9.82142,8.7165 4.67226,4.10657 11.42002,10.29356 14.99502,13.74886 l 6.5,6.28236 -5.20599,10e-4 c -3.98845,10e-4 -6.39595,-0.70034 -10.29401,-2.99872 -2.79841,-1.65 -5.33168,-3 -5.62949,-3 -0.29781,0 -4.55061,-2.7 -9.45067,-6 -4.90005,-3.3 -9.11503,-6 -9.3666,-6 -0.40624,0 -12.49588,-8.22498 -15.05324,-10.24121 -0.55,-0.43362 -3.25,-2.45869 -6,-4.50014 -5.17202,-3.83944 -6.73845,-5.14611 -16.81635,-14.02775 -3.28833,-2.898 -6.18255,-5.06533 -6.4316,-4.81628 -1.57517,1.57517 25.937,29.73539 39.83126,40.76948 4.62918,3.67625 9.54169,7.59878 10.91669,8.71673 l 2.5,2.03263 -17.29204,0.0333 -17.29204,0.0333 -4.57772,-3.25 c -12.14485,-8.62237 -21.7827,-20.48653 -31.37926,-38.62775 -1.85557,-3.50776 -3.56848,-5.79362 -3.80646,-5.07968 -0.23798,0.71394 -1.41717,-1.34025 -2.62041,-4.56486 -2.94967,-7.90491 -5.00969,-8.59591 -4.01817,-1.34783 0.40403,2.95357 1.1039,6.3467 1.55525,7.54029 0.45136,1.1936 3.1092,11.0936 5.90632,22 2.79712,10.90641 5.30631,20.55138 5.57598,21.43328 0.40355,1.31976 -0.67568,1.71232 -6.10024,2.21888 l -6.59053,0.61543 c -17.14703,-16.10731 -21.75199,-24.68462 -25.29933,-32.43782 -0.91821,13.09012 12.75065,32.84417 12.75065,32.84417 0,0 -6.93422,0.50188 -10.3845,0.94102 -11.6642,1.8472 -9.64543,11.52246 -10.52257,32.4215 -10.4165,-1.23808 -20.48355,1.55574 -29.90493,5.71962 9.85312,0.68471 20.04521,0.85116 29.77368,2.67646 l -0.27368,16.55917 v 16.57132 l -2.25,-0.69204 c -13.20753,-4.06228 -47.17496,-3.5009 -46.55748,0.76945 0.23316,1.61256 2.2349,2.93235 8.2823,5.46071 4.38615,1.83381 9.42464,4.44003 11.19665,5.79161 l 3.22182,2.4574 -6.69664,6.23981 c -8.66266,8.07169 -16.40237,16.91931 -25.14096,28.7398 -3.86271,5.225 -8.19252,11.075 -9.6218,13 -3.08854,4.15974 -10.86662,19.90061 -10.1752,20.59203 1.18019,1.18019 5.8083,-2.21877 9.35665,-6.87168 7.50755,-9.84455 35.04618,-24.00905 62.5693,-32.18254 l 4.81536,-1.43001 v 8.86595 8.86594 l -7.25,1.6425 c -8.5485,1.93668 -28.61368,11.63467 -37.25,18.00383 -3.3,2.43371 -8.28955,6.0153 -11.0879,7.95909 -8.99534,6.24837 -22.14711,21.54263 -13.84983,16.10604 21.35658,-13.99336 48.22891,-25.26066 64.18773,-26.91326 l 5.25,-0.54366 v 44.54672 44.54673 c -14.53684,-1.90629 -26.35086,-6.66092 -40.68161,-12.80077 1.07189,1.13756 19.47577,16.68452 40.68161,22.92967 v 7.34171 7.34171 l -3.25,-0.003 c -9.77076,-0.008 -22.12393,-2.5678 -39.01017,-8.08214 -22.73322,-7.42372 -30.03703,-7.89952 -19.08679,-1.2434 2.55917,1.5556 7.47379,5.45321 10.92136,8.66135 l 6.26832,5.83299 -1.63519,4.41197 c -4.5008,12.14396 -34.17804,19.71891 -52.20753,13.32586 z m 11.78649,-31.33438 c 1.50979,-3.31363 -1.81529,-8.21599 -7.84697,-11.56925 -12.03694,-6.69183 -20.50499,-15.84426 -25.31858,-27.36478 -0.83539,-1.99937 -1.99185,-3.63522 -2.56991,-3.63522 -1.30724,0 -1.40798,10.35844 -0.12413,12.76357 0.50979,0.95504 2.24348,4.68275 3.85263,8.2838 4.64219,10.38852 14.28959,19.6208 23.51681,22.50492 6.03329,1.8858 7.24706,1.74526 8.49015,-0.98304 z m 710.71351,32.43442 c -18.29233,-2.7322 -24.5704,-6.26185 -27.52727,-15.47634 l -1.27481,-3.97267 6.37962,-5.77733 c 3.50879,-3.17753 6.73641,-5.77733 7.17248,-5.77733 1.32425,0 8.74998,-5.20472 8.74998,-6.13289 0,-1.94695 -6.73341,-0.58325 -22.67949,4.59322 -19.96796,6.48206 -22.9752,7.17619 -35.07051,8.09498 l -9.25,0.70266 0.20815,-7.65996 c 0.1699,-6.25237 -0.0163,-5.44389 -0.0163,-5.44389 5.47777,-2.92379 6.87463,-3.29017 18.03431,-8.61224 22.7154,-11.64129 26.32243,-17.08979 17.11693,-12.98563 -6.42849,2.86607 -24.62149,7.58722 -29.83103,8.61449 l -5.3367,1.06672 -0.17536,-44.64307 v -44.66328 l 5.25,0.62504 c 15.43093,1.83714 34.18442,8.94467 53.75,20.37115 15.41551,9.00279 14.27421,8.44867 13.14757,6.38336 -6.99564,-12.82417 -42.85816,-36.16487 -63.89757,-41.58699 l -8.25,-2.12613 v -8.75094 -8.75094 l 4.25,1.27987 c 29.63362,8.92401 57.33802,23.23383 64.72543,33.43186 2.94534,4.06592 6.68757,6.86294 7.75459,5.79592 1.63026,-1.63026 -7.28364,-18.22748 -15.63057,-29.10331 -2.53267,-3.3 -5.95241,-7.98475 -7.59942,-10.41056 -1.64702,-2.42581 -8.52085,-10.02577 -15.27519,-16.88879 -6.75433,-6.86302 -12.15556,-12.54647 -12.00272,-12.62988 0.15283,-0.0834 1.85288,-1.2902 3.77788,-2.68173 1.925,-1.39153 5.525,-3.32277 8,-4.29165 11.27276,-4.41289 13.63623,-6.69731 8.75,-8.45735 -3.42946,-1.2353 -34.17438,-1.29551 -38.99886,-0.0764 -2.33813,0.59083 -5.26364,1.32068 -6.50114,1.62187 l -2.25,0.54764 v -16.52868 l -0.21216,-16.42852 c 10.09384,-2.03456 20.4639,-2.19113 30.71216,-2.80773 -9.7129,-4.81537 -20.21172,-4.72505 -30.8089,-4.52908 -0.33503,-29.77305 -2.50596,-33.09721 -12.10072,-33.88762 -8.34571,-0.51962 -8.32998,-0.67526 -5.01775,-5.09561 7.03419,-9.38752 14.4614,-31.51521 9.09052,-27.08314 -0.93461,0.77126 -2.11865,9.7277 -17.36609,23.87509 l -7.50043,6.9593 -6.89832,-0.3529 c -3.79407,-0.35295 -6.89831,-0.69231 -6.89831,-0.75446 0,-0.0621 0.40914,-1.46003 0.90919,-3.1064 3.07425,-10.12155 5.9618,-20.79531 7.03196,-25.9934 0.67939,-3.3 2.06513,-8.925 3.07942,-12.5 3.75053,-13.21921 3.3964,-21.49786 -0.50275,-11.75292 -0.93464,2.33589 -3.36196,10.49247 -3.74337,10.76908 -0.38141,0.27661 -2.70251,0.27571 -6.80868,7.35467 -8.61589,14.85362 -16.23905,23.98648 -25.71698,30.81003 l -6.69381,4.81914 h -17.00476 -17.00477 l 2.47728,-2.45059 c 1.3625,-1.34782 3.91335,-3.48532 5.66856,-4.75 8.10529,-5.84008 18.71355,-15.21062 28.63639,-25.29522 14.62095,-14.85931 22.27268,-25.76624 10.70154,-15.25419 -13.37915,12.15456 -24.76645,20.61701 -47.02922,34.94966 -18.24947,11.74891 -20.73699,12.92076 -26.73841,12.59631 l -5.4744,-0.29597 8.42573,-7.5 c 4.63416,-4.125 11.34914,-10.09238 14.9222,-13.26085 8.01526,-7.10766 22.42731,-17.08438 29.55406,-20.45873 9.65281,-4.57039 18.95732,-17.37847 25.46431,-35.05277 6.98765,-18.97986 29.60363,-25.36763 53.24514,-15.03883 26.43723,11.55025 41.59443,37.8919 50.58501,87.91158 1.34145,7.46322 -0.0691,23.75378 -2.57787,29.77172 -2.79138,6.69589 0.36823,5.58459 6.74434,-2.37212 5.81006,-7.25034 7.23863,-7.68229 17.86813,-5.40267 5.69568,1.22151 15.95049,9.75945 20.11052,16.7436 1.19872,2.01249 3.64345,5.92253 5.43273,8.68898 2.1054,3.25521 4.31869,9.07689 6.27299,16.5 2.70123,10.26026 4.45931,15.45896 12.67156,37.47009 5.34684,14.33104 13.38875,32.2223 24.30665,54.07623 19.5174,39.0675 26.0318,64.49709 21.0983,82.35998 -7.2143,26.1207 -17.7234,40.58672 -35.72049,49.16994 -16.60474,7.91917 -23.55497,9.15821 -38.6905,6.89752 z m 21.25192,-31.42553 c 11.76196,-3.13118 23.50487,-16.74165 27.81267,-32.23583 2.6099,-9.38734 0.3237,-15.34865 -2.9117,-7.59231 -5.00858,12.00729 -13.82413,21.70954 -24.84496,27.34396 -6.38324,3.26345 -10.37832,9.93565 -7.60793,12.70604 1.4704,1.4704 1.16095,1.47949 7.55192,-0.22186 z M 720.87556,687.1143 c 7.27438,-7.53141 13.8973,-15.10782 14.7176,-16.83647 0.8203,-1.72865 3.64353,-5.15998 6.27385,-7.62519 11.70292,-10.9683 13.67211,-16.76584 2.83687,-8.3521 -8.09771,6.28801 -8.07706,5.6058 0.0509,-1.68165 17.36134,-15.56601 28.51192,-30.15877 31.94815,-41.81051 1.14735,-3.89052 -1.82246,-0.95765 -5.39052,5.32346 -3.44546,6.0653 -19.57955,21.91527 -29.69157,29.1687 -13.93837,9.99811 -16.43231,11.43813 -27.66578,15.97442 -3.68189,1.48682 -8.85689,4.10948 -11.5,5.82815 -7.26552,4.72433 -7.48525,4.8562 -16.45038,9.87242 -8.06358,4.51179 -48.26604,20.76168 -48.26604,20.76168 0,0 1.57467,-4.34518 21.22451,-12.77652 3.04489,-1.12404 4.37086,-1.75229 16.60957,-6.13757 17.33171,-7.54886 32.49858,-17.34049 43.57668,-26.97457 3.575,-3.109 7.72761,-6.58615 9.22801,-7.72699 15.64389,-11.89497 24.70829,-24.06259 34.83634,-46.76269 2.43961,-5.46792 5.33565,-10.88805 6.43565,-12.04474 3.64875,-3.8368 9.94666,-11.07584 13.98749,-16.07773 2.19312,-2.71472 5.36271,-6.28586 7.04355,-7.93586 1.68083,-1.65 4.27569,-4.575 5.76635,-6.5 l 2.71029,-3.5 -0.47581,3 c -0.26169,1.65 -1.19708,8.85 -2.07865,16 -2.60771,21.14993 -7.12731,40.70163 -12.13598,52.5 -5.60396,13.20064 -6.82992,15.03698 -16.8272,25.20522 -5.63472,5.73108 -11.03236,11.94283 -11.99475,13.8039 -4.24894,8.21653 -9.16416,13.25246 -20.31547,20.81442 -16.2692,11.03249 -23.66913,17.1421 -27.45263,17.45035 -0.082,0.007 5.72458,-5.42872 12.99896,-12.96013 z m -226.58225,4.8303 c -2.00414,-1.57077 -8.46927,-6.10537 -14.36694,-10.0769 -10.18938,-6.86158 -19.77696,-16.77187 -19.77696,-20.4426 0,-0.64751 -4.73412,-5.89042 -10.52026,-11.65092 -10.34092,-10.2951 -11.30157,-11.69771 -17.78944,-25.97364 -5.15119,-11.33471 -9.72432,-31.44104 -13.18809,-57.98307 -1.93961,-14.86279 -2.17423,-14.57777 5.1678,-6.27809 22.01465,24.88608 23.69969,27.19911 31.51579,43.26116 8.64842,17.77247 16.31628,28.1227 27.83213,37.56838 3.9774,3.26239 9.98798,8.41976 13.35685,11.46082 13.90926,12.55581 38.5834,26.39315 55.19315,30.9525 9.74732,3.07796 24.81293,12.36601 24.86817,12.54323 -3.56778,0.7403 -44.55304,-15.22774 -56.42046,-23.61868 -6.55987,-4.08795 -16.63182,-8.82826 -20.72129,-11.47375 -16.99393,-6.99067 -46.5235,-30.65102 -54.83048,-43.9325 -1.03201,-1.65 -2.73628,-4.125 -3.78727,-5.5 l -1.9109,-2.5 0.7266,3.38656 c 0.39963,1.86261 2.01308,5.46261 3.58544,8 1.57237,2.53739 3.82598,6.41344 5.00803,8.61344 1.18205,2.2 8.28382,10.04269 15.78171,17.4282 13.70897,13.5035 14.50067,14.52119 6.02953,7.7507 -9.84205,-7.86617 -7.1777,-1.78514 4.06223,9.27152 9.63195,13.6762 22.3027,24.58464 33.36234,36.47261 -4.87141,-1.08245 -9.23358,-4.23258 -13.17768,-7.27897 z m -44.1439,-166.20273 c -1.925,-1.65268 -5.6995,-4.15458 -8.38778,-5.55977 l -4.88779,-2.55489 0.56522,-7.47343 c 0.31086,-4.11039 0.99146,-8.00889 1.51242,-8.66334 0.86552,-1.08728 2.17713,-5.73085 8.65144,-30.6292 1.20696,-4.64161 2.44681,-8.01661 2.75523,-7.5 0.69612,1.16605 2.79928,37.80421 3.08207,53.69126 0.11506,6.46359 0.20919,11.73898 0.20919,11.7231 0,-0.0159 -1.575,-1.38105 -3.5,-3.03373 z m 312.01483,-9.63231 c 0.0144,-11.47312 1.26521,-34.2561 2.58976,-47.17158 l 0.65251,-6.36256 2.73983,8.86256 c 1.5069,4.87441 3.73124,13.36256 4.94297,18.86256 1.21174,5.5 2.79042,10.675 3.5082,11.5 0.71777,0.825 1.52683,4.78101 1.7979,8.79114 l 0.49285,7.29114 -3.45762,1.44468 c -1.9017,0.79458 -5.10544,2.72556 -7.11943,4.29106 -6.48109,5.03784 -6.16321,5.42615 -6.14697,-7.509 z M 422.14941,512.3764 c -15.85241,-10.4466 -16.73208,-18.42625 -4.25899,-38.63417 10.13315,-16.41694 13.55607,-25.99471 23.74502,-66.44169 14.58211,-57.88642 17.20649,-65.33537 26.18015,-74.30904 0.80937,-0.80937 2.21465,-2.64594 3.12285,-4.08127 1.56223,-2.46898 13.14276,-18.04148 14.21097,-19.10969 0.275,-0.275 4.06404,-4.775 8.42009,-10 9.4794,-11.37035 23.00796,-24.73023 38.57991,-38.09888 12.22889,-10.49861 13.11967,-10.963 25.84659,-13.47474 35.48156,-7.00252 103.20526,-4.47503 114.59129,4.27662 9.36695,7.19972 34.44747,29.94829 41.12033,37.297 5.59447,6.16111 19.76622,23.25823 22.90488,27.63297 1.6703,2.3281 7.23021,9.92736 12.35536,16.88724 l 9.31845,12.65433 3.93395,14.16273 c 4.4921,16.17212 7.33831,27.05257 12.46808,47.66273 9.32896,37.48153 15.42288,53.49587 27.42005,72.05783 3.77515,5.84089 4.04102,6.72939 4.04102,13.50454 v 7.25229 l -5.25,4.74251 c -5.34528,4.82858 -10.53144,8.43235 -12.1446,8.43909 -0.49626,0.002 -0.6258,-2.8749 -0.29092,-6.46101 1.21174,-12.9763 -3.15042,-36.11962 -9.19535,-48.78563 -1.64587,-3.44861 -3.64949,-9.41557 -4.45249,-13.25991 -4.41654,-21.14404 -11.6427,-30.36272 -33.34261,-42.53639 -13.4852,-7.5652 -16.27964,-8.30817 -50.82403,-13.51286 -9.35,-1.40874 -23.525,-3.83404 -31.5,-5.38956 -7.975,-1.55552 -19.9,-3.88363 -26.5,-5.17358 -8.82501,-1.72482 -15.43957,-2.34536 -25,-2.34536 -13.09452,0 -16.44987,0.48405 -48.5,6.99666 -6.325,1.28525 -18.925,3.50463 -28,4.93197 -39.19135,6.1641 -39.61066,6.25366 -49.42109,10.55618 -5.21291,2.2862 -10.00582,4.7927 -10.65091,5.56998 -0.64509,0.77729 -1.70719,1.41325 -2.36021,1.41325 -1.22451,0 -9.14729,6.36987 -15.91771,12.79777 -5.32045,5.05128 -9.33506,13.52514 -12.09427,25.52809 -1.28635,5.59578 -3.33128,12.64914 -4.5443,15.67414 -6.59342,16.44253 -9.01151,28.40278 -9.01151,44.57236 0,10.34552 0.0229,10.31351 -5,7.0035 z m 49,-124.10217 c 2.475,-0.39519 7.425,-1.78759 11,-3.09424 24.05395,-8.79165 45.31337,-13.85572 62.5,-14.88772 7.11765,-0.42739 16.11764,-1.89196 25.5,-4.1496 11.65216,-2.80382 16.16942,-3.44323 23,-3.25562 10.52641,0.28911 18.99187,0.29558 30,0.0229 6.79339,-0.16827 11.31089,0.47812 22.5,3.21945 8.89436,2.17912 17.87063,3.6646 24.61352,4.0733 17.81835,1.07998 42.97882,7.02723 63.38648,14.98283 3.3,1.28645 8.025,2.64884 10.5,3.02754 2.475,0.37869 5.5125,1.35116 6.75,2.16104 6.64116,4.34631 -1.86985,-5.59369 -9.58823,-11.19808 -2.38602,-1.73251 -3.81782,-3.32349 -3.18177,-3.53551 7.05753,-2.35251 -36.60046,-32.19969 -57.45603,-39.28034 -30.32802,-10.29663 -116.33731,-10.35852 -145.39603,-0.10463 -21.78399,7.68688 -60.84781,34.33511 -57.72916,39.3812 0.32123,0.51975 -0.64959,1.74783 -2.15737,2.72907 -3.60503,2.34612 -13.24141,11.5352 -13.24141,12.6268 0,0.46971 1.0125,0.2119 2.25,-0.57293 1.2375,-0.78483 4.275,-1.75028 6.75,-2.14546 z m 65.12427,-87.03003 c 17.45647,-6.20885 40.23657,-9.92459 55.34608,-9.02768 13.67079,0.8115 18.97265,0.81266 33.52965,0.007 14.85558,-0.82185 32.86706,2.0335 51.75885,8.20529 15.48492,5.0588 10.47666,0.79097 -12.13398,-10.34008 -7.42289,-3.65423 -8.58974,-4.10724 -28.10052,-10.90943 -28.08291,-9.79076 -34.12291,-9.37347 -71.52435,4.94137 -20.96986,8.02591 -47.45462,23.73128 -28.87573,17.12321 z"
       id="path4"
       inkscape:label="grey"
       sodipodi:nodetypes="sssssssscssssssssssssssccsssssssssscccssssssssscccccccccsssscsssssscccsssssccccccccssscsssssssssssscsssssccccsscccsssscccssssssssssssccccccsssccsssssssscccsssssscsssssssssssssssssssssssssssssssssscccssssssscsssssssssssssssssssccccsscsssssssssscssssssssscsssscsssssssssssssssscsssscsssssssssssssssssssssssssssssssssssssssscscsssscc" />
    <path
       style="display:inline;fill:#1d242e"
       d="m 234.14941,1031.9236 c -11.08982,-2.4463 -31.65476,-18.6353 -36.99535,-29.1231 -0.70018,-1.375 -5.41472,-6.42676 -10.47677,-11.22619 -20.14814,-19.10284 -35.7563,-50.03672 -37.3475,-74.01917 -1.72792,-26.04303 1.95406,-36.51051 19.05615,-54.17461 2.61991,-2.706 4.76347,-5.27784 4.76347,-5.7152 0,-0.43736 1.27871,-2.27336 2.84159,-4.07999 1.56287,-1.80664 5.24634,-6.8848 8.18549,-11.2848 2.93914,-4.4 7.42048,-10.25 9.95854,-13 16.02404,-17.36219 26.19624,-38.79221 36.07493,-76 3.07373,-11.57708 6.80975,-23.31043 14.48766,-45.5 6.10899,-17.65528 17.07549,-26.73056 22.04795,-18.2457 2.16504,3.69436 9.27374,13.939 18.17828,26.19746 1.17065,1.61158 0.73318,1.80501 -5.3715,2.37507 -10.93727,1.02134 -16.96486,5.77143 -27.58586,21.73924 -4.03481,6.066 -6.12091,10.41295 -7.19315,14.98887 -2.82163,12.04156 -10.74561,34.7933 -19.48456,55.94506 -6.02516,14.58329 -5.37908,13.19098 -17.15242,36.96394 -14.32441,28.92417 -20.94914,47.10819 -24.96878,68.53606 -2.55101,13.59894 9.37106,45.228 21.42308,56.83507 14.24309,13.71726 35.57759,20.61071 54.55875,17.62862 18.13006,-2.84837 24.10171,-6.00583 27.20753,-14.38574 l 1.63519,-4.41197 -6.26832,-5.83299 c -3.44757,-3.20814 -8.36219,-7.10575 -10.92136,-8.66135 -11.00756,-6.69097 -3.63467,-6.1773 19.41024,1.35231 15.21652,4.97179 20.489,6.22967 30.18672,7.20175 l 11.75,1.1778 v 4.91488 c 0,4.61583 -0.13691,4.87677 -2.25,4.28856 -11.64871,-3.2426 -21.99855,-5.69172 -22.39165,-5.29862 -0.78936,0.78935 10.76685,9.24845 17.34575,12.69702 6.34171,3.32423 7.25712,4.68668 7.28225,10.8385 l 0.0136,3.34384 -4.75,-0.64465 c -13.10943,-1.77914 -58.09785,6.43993 -79.88768,14.59493 -8.4698,3.1699 -6.22876,3.2172 18.73589,0.3951 26.65175,-3.0129 46.45875,-3.4269 45.50878,-0.9513 -0.33385,0.87 -0.60699,2.4031 -0.60699,3.4069 0,1.3549 -1.48157,2.2705 -5.75,3.5534 -3.1625,0.9506 -9.8,3.1997 -14.75,4.9982 -16.68886,6.0634 -47.02834,10.6722 -56.5,8.5828 z m 727.5,-0.063 c -10.48802,-1.3876 -29.7883,-5.8858 -36,-8.3904 -3.3,-1.3305 -9.4875,-3.4411 -13.75,-4.6901 -5.89768,-1.7283 -7.75,-2.6947 -7.75,-4.0436 0,-0.9749 -0.27314,-2.4843 -0.60699,-3.3543 -0.89599,-2.3349 19.44692,-2.1203 41.60833,0.439 32.98588,3.8094 35.26916,3.6343 18.49866,-1.4185 -30.56202,-9.208 -62.15067,-14.70797 -75.25,-13.102 l -5.25,0.64365 v -3.6377 c 0,-5.36455 1.10686,-6.7097 9.69623,-11.78378 4.29207,-2.53549 9.60377,-6.23032 11.80377,-8.21074 l 4,-3.60076 -3.5,0.63659 c -1.925,0.35012 -7.30555,1.72016 -11.95677,3.04453 -10.73797,3.05759 -10.04323,3.22797 -10.04323,-2.46297 v -4.87101 l 9.25,-0.70266 c 12.09531,-0.91879 15.10255,-1.61292 35.07051,-8.09498 15.94608,-5.17647 22.67949,-6.54017 22.67949,-4.59322 0,0.92817 -7.42573,6.13289 -8.74998,6.13289 -0.43607,0 -3.64835,2.5875 -7.1384,5.75 l -6.34554,5.75 1.26468,4.21471 c 3.61661,12.05292 33.27904,20.63863 51.03721,14.77259 28.74612,-9.49567 42.17552,-24.16869 50.84302,-55.55109 4.9335,-17.86289 -1.5809,-43.29248 -21.0983,-82.35998 -10.9179,-21.85393 -18.95981,-39.74519 -24.30665,-54.07623 -8.21225,-22.01113 -9.97033,-27.20983 -12.67156,-37.47009 -1.9543,-7.42311 -4.16759,-13.24479 -6.27299,-16.5 -1.78928,-2.76645 -4.23401,-6.67649 -5.43273,-8.68898 -6.43949,-10.81106 -17.7777,-17.84093 -28.77498,-17.84093 h -3.54777 l 3.10805,-3.75 c 4.92497,-5.94218 17.79711,-24.76462 18.543,-27.1147 2.07181,-6.52769 14.81639,5.93606 19.99566,19.55505 4.4684,11.74973 14.75487,44.23802 18.14543,57.30965 7.1063,27.39695 16.82804,47.0041 31.98084,64.5 2.858,3.3 7.6964,9.74317 10.7519,14.31815 6.5688,9.83555 12.073,16.83841 19.8934,25.31024 27.3361,29.61323 15.4179,91.75227 -23.9503,124.87161 -2.942,2.475 -6.2476,6.19972 -7.3457,8.27716 -4.5256,8.5612 -19.9326,22.5689 -31.12553,28.2985 -5.36892,2.7484 -17.18287,3.8234 -27.30276,2.4845 z m -6.98839,-182.17334 c -2.14465,-2.81225 -3.95747,-5.9019 -4.02849,-6.8659 -0.18476,-2.50796 -9.84206,-13.16277 -17.4737,-19.27858 -3.58018,-2.86907 -6.73442,-5.50765 -7.00942,-5.86351 -2.60813,-3.375 -23.52491,-12.76279 -36.75,-16.49401 -17.64177,-4.9772 11.19421,-22.38472 37.08099,-22.38472 4.96381,0 4.05993,0.95052 -3.83099,4.02869 -3.3,1.28729 -7.575,3.47675 -9.5,4.86547 -1.925,1.38872 -3.62505,2.59319 -3.77788,2.67661 -0.15284,0.0834 5.24839,5.76686 12.00272,12.62988 6.75434,6.86302 13.62711,14.46298 15.27283,16.88879 1.64572,2.42581 4.7396,6.66056 6.87528,9.41056 6.12994,7.89318 16.72813,25.5 15.34938,25.5 -0.17125,0 -2.06607,-2.30093 -4.21072,-5.11318 z m -693.45926,-3.38672 c 1.77681,-3.3 4.082,-7.125 5.12266,-8.5 1.04065,-1.375 5.04473,-6.775 8.89795,-12 8.69243,-11.78703 16.43429,-20.6432 25.12369,-28.7398 l 6.69664,-6.23981 -3.22182,-2.4574 c -1.77201,-1.35158 -3.07585,-2.40341 -7.50112,-4.14068 -12.52566,-4.91732 -13.36271,-7.09493 -10.84011,-8.46819 0,0 6.01245,0.95425 9.07234,1.43988 15.46941,2.14922 28.30999,8.20887 35.34744,14.90566 3.22992,3.07357 4.42931,7.69489 2,7.70611 -5.99463,0.0277 -33.98124,11.92657 -41.69284,17.72628 -10.70246,8.04906 -26.72102,24.38479 -25.63479,26.14235 0.23843,0.38578 -1.14916,2.48436 -3.08353,4.66351 l -3.51706,3.96209 z m 32.57439,-130.25 c -1.87036,-3.7125 -4.11602,-8.12537 -4.99035,-9.80637 -14.82723,-28.50722 7.48032,-111.39642 32.17272,-119.54565 21.74364,-7.17605 41.58508,-20.97314 45.80878,-31.85394 1.16484,-3.00078 2.64711,-5.63237 3.29393,-5.84798 1.92965,-0.64322 15.4026,13.85979 17.46842,18.80394 1.03413,2.475 3.24431,7.425 4.91151,11 2.63599,5.65239 3.13343,8.13002 3.81471,19 0.4309,6.875 1.25822,14.07203 1.83849,15.9934 1.64794,5.45654 1.30257,5.65576 -2.36894,1.36644 -23.41764,-27.35825 -73.26097,-4.0083 -88.88601,41.64016 -6.78497,19.82226 -12.00942,45.62037 -10.73318,53 2.59492,15.00461 2.37615,15.59141 -2.33008,6.25 z m 624.38752,6.25 c -0.005,-0.55 0.48089,-4.9914 1.07919,-9.86979 1.21114,-9.87543 0.76885,-13.46506 -4.25821,-34.55943 -8.97894,-37.6771 -23.15992,-58.71254 -46.43661,-68.88196 -18.8778,-8.24757 -34.76062,-6.5934 -46.6408,4.85756 -4.4694,4.30794 -4.81739,4.47292 -4.36093,2.06756 1.08445,-5.7146 1.70434,-11.09119 2.49195,-21.61394 1.01731,-13.59158 7.44849,-28.75564 16.03928,-37.81896 5.57151,-5.87796 11.06592,-9.59039 11.08164,-7.48758 0.0425,5.6822 11.31249,20.55092 18.16361,23.96359 17.47572,8.70497 23.9086,11.72582 27.32662,12.83246 27.14327,8.78809 48.71644,83.94309 34.47043,120.08552 -2.12247,5.38474 -8.94349,17.89401 -8.95617,16.42497 z m -531.34117,-26.25 c -2.4223,-4.87414 -7.89678,-20.23158 -11.71732,-32.87029 -3.1015,-10.2601 -2.21098,-12.22264 1.96466,-4.32972 9.3891,17.74754 19.68308,30.64381 29.87336,37.42526 6.49403,4.32167 6.21495,4.52475 -6.21793,4.52475 H 389.1831 Z m 422.5757,-0.0691 c 9.53913,-6.86761 17.09485,-15.94167 26.06381,-31.30142 6.49099,-11.11612 7.69412,-12.70278 7.11221,-9.37944 -0.69665,3.97865 -12.04668,37.50187 -14.47396,42.75 l -1.27188,2.75 h -12.062 -12.06199 z M 463.64941,670.25319 c -2.2,-1.90974 -8.71286,-6.95534 -14.47303,-11.21245 -22.61098,-16.71088 -32.80057,-36.21475 -37.47992,-71.7402 -2.97159,-22.56023 -8.58041,-40.47508 -19.09882,-61.00264 -7.26254,-14.17347 -7.38744,-14.54361 -6.4868,-19.22454 2.11263,-10.98003 4.00385,-17.21392 7.51551,-24.77282 5.35794,-11.53304 15.95076,-38.74383 18.49115,-47.5 1.19676,-4.125 4.12404,-13.575 6.50505,-21 2.38101,-7.425 4.63497,-15.075 5.0088,-17 0.37383,-1.925 2.39652,-8 4.49488,-13.5 3.91583,-10.26378 5.17609,-14.20451 11.99267,-37.5 3.92348,-13.40839 6.40838,-24.37485 7.47751,-33 4.05703,-32.73008 9.89342,-51.40714 19.06185,-61 1.83983,-1.925 4.8405,-5.59528 6.66815,-8.15618 10.80913,-15.14572 49.73687,-53.79086 54.22861,-53.83493 0.49808,-0.005 2.29808,-1.04699 4,-2.31577 17.08438,-12.73646 29.74014,-16.29134 54.09439,-15.1946 19.59179,0.88228 24.72927,0.87894 44.78808,-0.0291 16.07562,-0.7277 24.60016,0.1013 31.21192,3.03533 1.65,0.7322 5.025,2.19386 7.5,3.24812 19.66008,8.37453 54.47786,39.7052 74.17605,66.74709 2.00319,2.75 4.87025,6.125 6.37125,7.5 7.01006,6.42161 14.2654,28.55939 18.51706,56.5 3.03475,19.94342 5.19191,28.83185 13.95482,57.5 1.76523,5.775 4.47335,13.68687 6.01805,17.58193 1.54471,3.89505 4.014,11.54505 5.48733,17 2.51971,9.32916 10.07103,33.54715 14.62935,46.91807 2.05495,6.02778 7.19296,18.53806 13.35366,32.51411 6.98205,15.83937 10.3964,30.92134 7.74694,34.22 -6.62321,8.24611 -20.03788,41.65748 -22.34787,55.66096 -9.09938,55.16161 -15.51476,69.96378 -37.31854,86.10493 -4.82918,3.575 -11.39047,8.6375 -14.58064,11.25 -6.99215,5.72603 -8.15951,6.0021 -4.2285,1 1.62085,-2.0625 3.73881,-5.29679 4.70657,-7.18732 0.96776,-1.89052 6.36979,-8.12638 12.00451,-13.85746 9.99728,-10.16824 11.22324,-12.00458 16.8272,-25.20522 5.00867,-11.79837 9.52827,-31.35007 12.13598,-52.5 0.88157,-7.15 1.81696,-14.35 2.07865,-16 l 0.47581,-3 -2.71029,3.5 c -1.49066,1.925 -4.08552,4.85 -5.76635,6.5 -1.68084,1.65 -4.85043,5.22114 -7.04355,7.93586 -2.19312,2.71473 -5.6326,6.76473 -7.6433,9 -2.01069,2.23528 -4.59603,5.18914 -5.7452,6.56414 -6.40742,7.66661 13.1264,-29.72696 20.9327,-40.07145 10.4019,-13.78399 19.9325,-29.92851 17.66772,-29.92851 -0.73871,0 -4.80517,2.8125 -9.03657,6.25 -4.2314,3.4375 -10.20129,8.275 -13.26642,10.75 -3.06513,2.475 -6.89633,5.58026 -8.51377,6.90059 -2.78332,2.27202 -2.69634,1.97747 1.62403,-5.5 6.54381,-11.32567 7.94446,-14.28278 7.14418,-15.08306 -0.93456,-0.93456 -14.35861,12.33928 -16.36559,16.18247 -5.05585,9.68147 -7.26701,9.72168 -8.00767,0.14561 l -0.47533,-6.14561 5.1951,-3.84123 c 2.8573,-2.11268 6.76957,-4.4991 8.69393,-5.30315 3.07394,-1.28437 3.41876,-1.78098 2.83939,-4.08935 -0.36269,-1.44509 -0.56526,-7.83368 -0.45015,-14.19685 0.2902,-16.04186 -0.11574,-32.40283 -0.98798,-39.81942 -0.90467,-7.69237 -0.64546,-7.74278 2.57112,-0.5 5.75441,12.9572 9.81075,35.36359 8.6508,47.78525 -0.33488,3.58611 -0.20534,6.46309 0.29092,6.46101 1.61316,-0.007 6.79932,-3.61051 12.1446,-8.43909 l 5.25,-4.74251 v -7.25229 c 0,-6.77515 -0.26587,-7.66365 -4.04102,-13.50454 -11.99717,-18.56196 -18.09109,-34.5763 -27.42005,-72.05783 -5.12977,-20.61016 -7.97598,-31.49061 -12.46808,-47.66273 l -3.93395,-14.16273 -9.31845,-12.65433 c -5.12515,-6.95988 -10.68506,-14.55914 -12.35536,-16.88724 -3.13866,-4.37474 -17.31041,-21.47186 -22.90488,-27.63297 -6.67286,-7.34871 -31.75338,-30.09728 -41.12033,-37.297 -11.38603,-8.75165 -79.10973,-11.27914 -114.59129,-4.27662 -12.72692,2.51174 -13.6177,2.97613 -25.84659,13.47474 -15.57195,13.36865 -29.10051,26.72853 -38.57991,38.09888 -4.35605,5.225 -8.14509,9.725 -8.42009,10 -1.06821,1.06821 -12.64874,16.64071 -14.21097,19.10969 -0.9082,1.43533 -2.31348,3.2719 -3.12285,4.08127 -8.97366,8.97367 -11.59804,16.42262 -26.18015,74.30904 -10.18895,40.44698 -13.61187,50.02475 -23.74502,66.44169 -10.79447,17.48836 -11.51972,23.16473 -3.99101,31.23683 3.93568,4.21974 11.11261,9.82148 12.58325,9.82148 0.20515,0 0.63421,-6.4125 0.95348,-14.25 0.68765,-16.8806 3.00446,-26.88217 9.78699,-42.25 0.56423,-1.27843 0.69916,0.52551 0.37399,5 -0.59907,8.24354 -0.80472,25.11634 -0.51518,42.26853 l 0.2071,12.26853 4.68018,2.43532 c 2.57411,1.33942 6.37942,3.91858 8.45625,5.73147 l 3.77606,3.29615 -1.30851,7 -1.30852,7 -3.81658,-5.92424 c -4.31644,-6.70014 -16.37194,-19.57576 -18.32885,-19.57576 -1.88475,0 -1.59753,1.26724 1.23238,5.43735 1.38713,2.04404 4.34082,7.14924 6.56376,11.34489 l 4.0417,7.62846 -5.34579,-4.95535 c -2.94018,-2.72544 -8.95721,-7.75353 -13.37118,-11.17353 -4.41397,-3.42001 -9.34955,-7.35696 -10.96796,-8.74878 -9.941,-8.54922 -3.13036,5.42076 13.64822,27.9952 4.07635,5.48447 8.53603,12.44166 9.91038,15.46042 1.37436,3.01877 4.87847,10.10627 7.78691,15.75 2.90845,5.64374 5.11079,10.26134 4.89409,10.26134 -0.2167,0 -4.16359,-4.3875 -8.77087,-9.75 -13.96371,-16.25261 -21.22678,-24.26785 -21.62745,-23.86718 -0.60666,0.60666 2.59085,23.67464 5.26761,38.00234 3.60255,19.28316 5.63112,25.52005 14.0232,43.11484 1.54642,3.2422 6.08332,8.6821 12.90508,15.47364 5.78614,5.7605 10.52026,11.01353 10.52026,11.6734 0,0.65987 1.48229,3.14674 3.29398,5.52636 5.99027,7.86816 6.01899,8.32528 0.20602,3.27925 z m 13.5,-295.09769 c 0,-6.5528 37.41379,-31.59056 58.12794,-38.89993 24.04454,-8.48455 95.47354,-10.35321 130.937,-3.42546 23.64513,4.61905 47.48543,17.21096 64.71253,34.17969 7.11304,7.00635 10.01895,12.91719 3.92449,7.9827 -18.18772,-14.72602 -46.71136,-24.75985 -73.20196,-25.75043 -7.7,-0.28793 -19.625,-1.27927 -26.5,-2.20298 -16.04134,-2.15528 -38.95167,-2.15584 -55,-10e-4 -6.875,0.92297 -18.8,1.93051 -26.5,2.23898 -7.7,0.30848 -14.675,0.69834 -15.5,0.86636 -0.825,0.16802 -4.2,0.85423 -7.5,1.52491 -8.64347,1.75666 -20.04295,5.97179 -26.98517,9.97818 -3.30816,1.90916 -9.60634,5.43891 -13.99596,7.8439 -4.38962,2.405 -8.41712,4.80871 -8.95,5.34159 -1.08908,1.08874 -3.56887,1.31375 -3.56887,0.32349 z"
       id="path3"
       inkscape:label="shadow"
       sodipodi:nodetypes="sssssssssssssssssssssscsssscssssscssssssssssssssssscssscssscssssscssssssssscsssssssscsssssssssssssssssssssscssscssssscsssssssssssssscssssssssssscssssscssssscccssssssssssssssscssssssssssssssssssssssscsssssssssssssscssssssscscsssscsssssssssssssssssscsscccsssscsssssssssssssssssssssscssssscs" />
    <path
       style="display:inline;fill:#1b0329"
       d="m 354.64941,1066.5771 c -18.7,-0.4784 -35.125,-0.867 -36.5,-0.8636 -8.70273,0.022 -11,-3.7345 -11,-17.9848 0,-9.2324 -0.24423,-11.0485 -1.42493,-10.5954 -0.78372,0.3008 -4.72122,1.8628 -8.75,3.4712 -4.02879,1.6084 -10.70007,4.1875 -14.82507,5.7313 -4.125,1.5438 -13.34425,5.2621 -20.48723,8.2628 -15.87712,6.6699 -19.09788,7.2314 -24.21735,4.222 -6.81505,-4.0061 -20.43982,-15.2877 -32.93417,-27.2701 -6.7386,-6.4625 -12.684,-11.75 -13.21201,-11.75 -0.52801,0 -2.72619,-1.4625 -4.88486,-3.25 -2.15867,-1.7875 -5.46374,-4.3737 -7.34461,-5.747 -37.34227,-27.26621 -60.97493,-85.15537 -53.51762,-131.09354 2.23314,-13.75645 5.44621,-18.42225 17.61384,-25.5776 6.69364,-3.93629 20.28164,-14.0926 27.25816,-20.37402 l 3.93417,-3.5422 -6.00389,-18.9578 c -9.2483,-29.20229 -26.85106,-93.18772 -31.07534,-112.9578 -0.5876,-2.75 -2.66567,-11.525 -4.61793,-19.5 -22.26912,-90.96921 -34.617971,-200.09701 -28.62935,-253 4.91252,-43.39679 8.35753,-48.09501 39.61819,-54.03039 6.6,-1.25313 21.675,-4.52521 33.5,-7.2713 11.825,-2.74609 25.17674,-5.8002 29.67052,-6.78692 4.49379,-0.98671 16.64379,-4.07568 27,-6.86437 10.35622,-2.7887 20.62948,-5.54011 22.82948,-6.11425 34.33332,-8.96012 118.8806,-36.11654 157.5,-50.58869 5.225,-1.958 10.89905,-4.01745 12.60901,-4.57655 3.882,-1.2693 8.39099,-14.57663 8.39099,-24.76426 0,-6.82477 1.21031,-9.74792 7.40414,-17.88252 2.25272,-2.95859 4.54586,-6.07673 5.09586,-6.9292 6.42633,-9.96046 33.65238,-35.46886 54.45045,-51.01525 2.50225,-1.87041 5.05004,-4.02646 5.66175,-4.79121 1.28937,-1.61194 19.83081,-12.87001 26.41394,-16.03813 2.46062,-1.18417 8.55451,-4.20916 13.54197,-6.72221 14.47426,-7.29317 16.51364,-7.55009 59.93189,-7.55009 28.94998,0 39.43276,0.332 44.01601,1.39401 11.33466,2.62644 49.52995,22.48717 57.48399,29.89044 1.925,1.7917 6.08427,5.25637 9.24282,7.69927 9.93442,7.6835 14.12031,11.05935 18.75718,15.12732 7.58638,6.65563 22.0487,21.09071 25.36205,25.3143 1.72587,2.2 4.12402,5.125 5.32922,6.5 7.77169,8.86665 13.30873,19.44585 13.30873,25.42798 0,3.26151 0.42959,7.31197 0.95465,9.00102 0.52505,1.68905 1.76255,5.69606 2.75,8.90446 l 1.79535,5.83346 10.5,4.27153 c 12.71428,5.17233 37.44225,14.73247 45,17.39756 3.025,1.06671 10.9,3.95558 17.5,6.41973 14.93744,5.57698 45.31582,16.36089 48,17.03936 1.1,0.27804 9.2,2.96464 18,5.97022 44.95181,15.35301 84.00469,26.23606 120.99999,33.71964 46.195,9.34455 46.5567,9.8862 43.4695,65.08862 -5.2739,94.30062 -19.1348,190.39365 -39.5847,274.42642 -6.2879,25.83841 -17.0321,65.39751 -21.4569,79.00247 -3.733,11.47805 -3.8562,10.33167 2.4824,23.09956 6.8227,13.74272 21.5731,27.64838 42.0777,39.66789 10.3719,6.07991 14.2835,11.94692 16.4877,24.73008 0.6164,3.575 1.6058,9.06511 2.1986,12.20024 0.5928,3.13513 0.7966,6.43321 0.4528,7.32906 -0.3437,0.89585 -0.8752,4.63074 -1.181,8.29976 -0.7566,9.07725 -3.0529,20.75017 -5.6854,28.90121 -1.2025,3.72335 -2.2031,7.21973 -2.2236,7.76973 -0.02,0.55 -0.5996,1.59464 -1.2871,2.32143 -0.6875,0.72678 -1.25,1.97328 -1.25,2.76998 0,4.04765 -13.7671,28.21024 -22.3218,39.17709 -7.6264,9.77662 -31.5642,31.23146 -34.846,31.23146 -0.5414,0 -5.3377,4.4484 -10.6583,9.8853 -10.1848,10.4075 -30.26611,26.9387 -36.14551,29.7556 -4.32804,2.0736 -8.84104,1.2029 -21.02838,-4.0569 -4.675,-2.0176 -13.225,-5.4849 -19,-7.705 -5.775,-2.2201 -14.775,-5.7209 -20,-7.7795 l -9.5,-3.743 v 12.4178 12.4178 l -3,2.4025 c -1.96083,1.5704 -4.21237,2.3745 -6.5,2.3215 -1.925,-0.044 -24.875,0.4207 -51,1.0338 -27.34121,0.6417 -87.81758,0.9355 -142.5,0.6922 -52.25,-0.2325 -95.9,-0.4189 -97,-0.4144 -102.65012,0.4274 -227.34961,0.205 -253,-0.4511 z m -86,-37.3944 c 7.15,-1.4146 17.05,-4.0435 22,-5.8419 4.95,-1.7985 11.5875,-4.0476 14.75,-4.9982 4.26843,-1.2829 5.75,-2.1985 5.75,-3.5534 0,-1.0038 0.27314,-2.5369 0.60699,-3.4069 0.94997,-2.4756 -18.85703,-2.0616 -45.50878,0.9513 -24.96465,2.8221 -27.20569,2.7748 -18.73589,-0.3951 21.78983,-8.155 66.77825,-16.37407 79.88768,-14.59493 l 4.75,0.64465 -0.0136,-3.34384 c -0.0251,-6.15182 -0.94054,-7.51427 -7.28225,-10.8385 -6.5789,-3.44857 -18.13511,-11.90767 -17.34575,-12.69702 0.3931,-0.3931 10.74294,2.05602 22.39165,5.29862 l 2.25,0.62632 v -79.06273 -79.06273 l -4.81536,1.43001 c -26.96717,8.00839 -51.85741,20.7272 -65.1384,33.28545 -3.54956,3.35641 -6.62025,5.93607 -6.82373,5.73258 -0.61384,-0.61384 2.8878,-6.80867 6.12866,-10.84238 1.67326,-2.08259 3.13609,-4.42571 3.25075,-5.20694 0.47847,-3.26001 14.82813,-17.79087 25.45524,-25.77667 7.72026,-5.80144 35.70113,-17.69641 41.69284,-17.72408 2.42931,-0.0112 1.22992,-4.63254 -2,-7.70611 -7.05614,-6.71458 -19.32712,-12.36308 -35.34747,-14.90566 l -9.07236,-1.43987 c 2.15525,-0.80952 4.24051,-1.30093 6.25578,-1.47423 5.55677,-0.49309 28.98985,-1.11428 39.00548,2.01664 2.08492,0.65175 2.09327,0.55092 2.6822,-32.39377 0.77975,-43.61868 -1.37635,-40.437 28.56324,-42.14986 9.6511,-0.55215 17.65656,-1.11301 17.7899,-1.24635 0.26525,-0.26525 -9.69728,-39.26912 -11.44029,-44.78941 -2.03977,-6.46012 -2.61092,-13.2253 -1.07328,-12.71275 1.33983,0.44661 2.37588,3.27878 12.36303,33.7956 2.60995,7.975 5.82809,16.6375 7.15142,19.25 l 2.40604,4.75 44.73316,-10e-4 44.73315,-10e-4 -6.5,-6.28236 c -3.575,-3.4553 -10.26622,-9.70753 -14.99502,-13.74886 -11.74285,-10.03568 -20.64682,-15.83989 -28.77838,-20.50088 -18.50945,-10.60957 -30.23642,-31.8047 -32.15748,-62.96562 -0.6388,-10.36173 -1.15407,-12.8874 -3.77422,-18.5 -1.66893,-3.575 -3.88053,-8.525 -4.91466,-11 -2.06582,-4.94415 -15.53877,-19.44716 -17.46842,-18.80394 -0.64682,0.21561 -2.12909,2.8472 -3.29393,5.84798 -4.2237,10.8808 -24.06514,24.67789 -45.80878,31.85394 -25.23925,8.32971 -47.02914,91.3812 -31.64187,120.60202 11.52118,21.87902 12.23777,23.5 10.38854,23.5 -2.92945,0 -24.90065,-27.49411 -32.95742,-41.24195 -4.97469,-8.48867 -15.93978,0.58268 -22.05015,18.24195 -7.67791,22.18957 -11.41393,33.92292 -14.48766,45.5 -9.87869,37.20779 -20.05089,58.63781 -36.07493,76 -2.53806,2.75 -7.0194,8.6 -9.95854,13 -2.93915,4.4 -6.62262,9.47816 -8.18549,11.2848 -1.56288,1.80663 -2.84159,3.64263 -2.84159,4.07999 0,0.43736 -2.14356,3.0092 -4.76347,5.7152 -17.10209,17.6641 -20.78407,28.13158 -19.05615,54.17461 1.5912,23.98245 17.19936,54.91633 37.3475,74.01917 5.06205,4.79943 9.77659,9.85121 10.47677,11.22621 5.34059,10.4878 25.90553,26.6768 36.99535,29.1231 5.56281,1.2272 20.4036,0.048 34.5,-2.7409 z m 720.30276,0.1935 c 11.19293,-5.7296 26.59993,-19.7373 31.12553,-28.2985 1.0981,-2.07744 4.4037,-5.80216 7.3457,-8.27716 39.3682,-33.11934 51.2864,-95.25838 23.9503,-124.87161 -7.8204,-8.47183 -13.3246,-15.47469 -19.8934,-25.31024 -3.0555,-4.57498 -7.8939,-11.01815 -10.7519,-14.31815 -15.1528,-17.4959 -24.87454,-37.10305 -31.98084,-64.5 -3.39056,-13.07163 -13.67703,-45.55992 -18.14543,-57.30965 -5.20085,-13.67574 -17.92436,-26.08115 -20.01003,-19.50977 -2.55633,8.05427 -32.88755,45.70789 -35.06511,43.53034 -0.2844,-0.28441 2.43511,-6.29821 6.04336,-13.36401 20.94812,-41.02136 3.35995,-120.90592 -28.92094,-131.3574 -3.41802,-1.10664 -9.8509,-4.12749 -27.32662,-12.83246 -6.85112,-3.41267 -18.12113,-18.28139 -18.16361,-23.96359 -0.0157,-2.10281 -5.51013,1.60962 -11.08164,7.48758 -8.58733,9.05967 -15.02102,24.22618 -16.04293,37.81896 -1.64994,21.94627 -3.22418,28.26298 -10.79755,43.32566 -5.00842,9.96126 -12.40754,18.14471 -19.39847,21.45476 -7.12675,3.37435 -21.5388,13.35107 -29.55406,20.45873 -17.53651,15.5508 -23.13512,20.61417 -23.13512,20.92337 0,0.18561 20.19459,0.33748 44.87686,0.33748 h 44.87685 l 1.99941,-4.75 c 1.09968,-2.6125 4.60134,-12.625 7.78146,-22.25 8.24116,-24.94277 10.51068,-31 11.61506,-31 1.26483,0 0.25295,7.6043 -2.12907,16 -1.01429,3.575 -2.40003,9.2 -3.07942,12.5 -1.06851,5.1901 -3.97853,15.94839 -7.01486,25.93377 -1.15608,3.80194 -2.79171,3.3878 17.23684,4.51914 30.04341,1.69704 27.57,-3.02336 28.62471,42.32304 0.86849,37.33997 -0.66525,33.23749 9.21216,30.71088 6.21693,-1.59027 23.85744,-0.73888 33,1.59269 l 7.5,1.91268 -7.94802,0.72411 c -28.83051,2.62663 -51.54206,17.30453 -34.30198,22.16851 13.22509,3.73122 34.14187,13.11901 36.75,16.49401 0.275,0.35586 3.42924,2.99444 7.00942,5.86351 7.58624,6.07942 17.28859,16.76585 17.47109,19.24313 0.0696,0.94451 2.23994,4.52875 4.823,7.96499 4.01076,5.33548 5.77716,9.04954 4.30395,9.04954 -0.2159,0 -2.8034,-2.40877 -5.75,-5.35281 -11.6409,-11.6308 -31.70203,-22.57417 -56.95353,-31.0682 l -13.40393,-4.50878 -0.2561,78.62547 c -0.14085,43.244 -0.0616,78.81993 0.17605,79.05761 0.23768,0.23768 4.40293,-0.69188 9.2561,-2.06567 4.85317,-1.3738 10.39895,-2.78557 12.32395,-3.13726 l 3.5,-0.63943 -4,3.60076 c -2.2,1.98042 -7.5117,5.67525 -11.80377,8.21074 -8.58937,5.07408 -9.69623,6.41923 -9.69623,11.78378 v 3.6377 l 5.25,-0.64365 c 13.09933,-1.60597 44.68798,3.894 75.25,13.102 16.7705,5.0528 14.48722,5.2279 -18.49866,1.4185 -22.16141,-2.5593 -42.50432,-2.7739 -41.60833,-0.439 0.33385,0.87 0.60699,2.3794 0.60699,3.3543 0,1.3489 1.85232,2.3153 7.75,4.0436 4.2625,1.249 10.45,3.3596 13.75,4.6901 6.2117,2.5046 25.51198,7.0028 36,8.3904 10.11989,1.3389 21.93384,0.2639 27.30276,-2.4845 z m -92.55276,-11.154 c 12.03217,-1.5783 4.89936,-3.115 -17.5,-3.7701 -124.79883,-3.6501 -568.65415,-1.2264 -564.35086,3.0817 1.89872,1.9009 567.50607,2.57 581.85086,0.6884 z M 347.62154,993.48137 c 0.86549,-2.82043 2.7258,-193.54594 2.33053,-238.93386 l -0.30266,-34.75303 12.5,0.75303 c 16.30619,0.98232 474.67516,0.98317 491,9e-4 l 12.5,-0.75212 0.29466,122.76779 c 0.36247,151.02091 0.57774,156.24826 6.30805,153.18149 4.26568,-2.28292 6.64533,-273.8046 2.44994,-279.54214 -4.15177,-5.67789 -530.09402,-5.99907 -533.60026,-0.32585 -3.14279,5.08514 -1.73092,277.1493 1.45034,279.47549 2.26212,1.65411 4.20791,0.93569 5.0694,-1.8717 z M 211.26707,727.80054 c 4.04958,-14.29415 13.61347,-37.00674 24.63335,-58.5 3.41036,-6.65159 8.60716,-14.66804 14.26186,-22 9.67428,-12.54379 10.53611,-14.36322 13.30441,-28.08722 5.04225,-24.99724 8.40053,-30.85811 24.18272,-42.20377 2.2,-1.58156 4.64808,-3.66231 5.44017,-4.62389 1.84099,-2.23492 11.10021,-6.91685 17.55983,-8.87914 16.81742,-5.10876 26.85071,-13.89201 41.93001,-36.70598 6.03171,-9.12558 6.30609,-9.8153 6.96164,-17.5 0.64321,-7.53996 1.56221,-11.98881 4.97639,-24.09049 0.78988,-2.79977 3.95521,-10.01957 7.03405,-16.04401 3.07885,-6.02444 5.59791,-11.25216 5.59791,-11.61716 0,-1.12977 16.17154,-34.10012 18.02459,-36.74834 5.94271,-8.4928 9.74698,-18.74504 15.77036,-42.5 0.83676,-3.3 3.21147,-12.6375 5.27713,-20.75 2.06567,-8.1125 3.59813,-14.75 3.40548,-14.75 -0.19265,0 -7.01641,2.27475 -15.16391,5.05501 -77.96507,26.60478 -158.74747,50.5534 -197.31365,58.49527 -4.125,0.84946 -9.3,2.02159 -11.5,2.60475 -2.2,0.58315 -12.70633,3.00567 -23.3474,5.38336 -10.64106,2.37769 -19.49666,4.47234 -19.6791,4.65478 -2.91522,2.91521 -2.95055,70.83146 -0.0509,97.80683 7.49355,69.71203 22.05215,141.72604 47.78844,236.38526 l 2.14387,7.88526 3.31898,-12.88526 c 1.82545,-7.08689 4.27514,-16.26026 5.44377,-20.38526 z m 794.16863,-29.5 c 19.051,-80.1445 31.7908,-168.07256 36.8482,-254.32207 1.4305,-24.39587 2.1724,-22.27739 -8.4557,-24.14648 -5.9869,-1.05285 -20.3654,-4.57619 -49.67879,-12.17335 -28.58405,-7.40814 -91.87977,-28.03871 -134.62908,-43.88092 -8.87099,-3.28745 -16.42554,-5.97718 -16.78788,-5.97718 -0.36234,0 -6.82925,-2.44549 -14.37092,-5.43443 -20.59873,-8.16375 -22.39224,-8.71658 -21.76982,-6.71031 0.28065,0.90461 2.1182,7.94474 4.08346,15.64474 9.43308,36.95936 11.75958,44.89593 14.54596,49.62164 1.61055,2.7315 2.92828,5.18051 2.92828,5.44224 0,0.26172 1.04869,2.15442 2.33042,4.20599 3.81763,6.11058 20.66958,40.33121 20.66958,41.97295 0,0.33322 1.84662,4.19246 4.1036,8.5761 7.07888,13.74897 10.83224,27.39962 10.87673,39.55772 0.0261,7.13341 10.80339,23.65644 24.53049,37.6085 9.30047,9.4529 11.34683,10.75716 23.48918,14.97095 8.80299,3.05492 15.99038,6.79836 19.69218,10.25636 1.6916,1.58019 4.81538,4.17952 6.94173,5.77628 5.07906,3.81408 11.97072,10.9567 15.02527,15.57244 2.2126,3.34347 8.28712,28.36579 8.32798,34.30485 0.0126,1.82885 2.07348,4.96505 12.62727,19.21582 9.48705,12.81034 26.09741,45.11002 31.97756,62.18198 2.2245,6.45845 2.2587,6.39581 6.6943,-12.26382 z m -478.28629,2.01257 c -22.39727,-12.79126 -44.58652,-26.8867 -61.43484,-46.83826 -3.54945,-4.65357 -1.62026,-4.77981 3.90133,-0.25528 2.29486,1.88046 6.3912,4.63879 9.10299,6.12962 2.71179,1.49082 5.60552,3.2878 6.43052,3.99329 1.15894,0.99104 21.28852,11.61295 34.84567,18.38725 16.15416,8.07198 45.65578,18.10418 53.04721,18.03901 5.89114,-0.0519 7.9596,-2.3341 3.87853,-4.27921 -1.79928,-0.85756 -7.09641,-3.83848 -11.77141,-6.62425 -4.675,-2.78578 -10.075,-5.34467 -12,-5.68643 -12.97787,-2.30404 -42.64285,-18.7273 -56.62522,-31.34911 -3.36887,-3.04106 -9.37945,-8.19843 -13.35685,-11.46082 -11.65065,-9.55624 -19.19869,-19.78974 -27.70977,-37.56838 -9.07688,-18.96053 -18.85008,-39.12496 -21.56804,-44.5 -1.11246,-2.2 -5.12999,-8.17905 -8.92784,-13.28679 -16.37907,-22.02818 -23.18693,-36.12294 -13.36971,-27.68017 1.61841,1.39182 6.55399,5.32877 10.96796,8.74878 4.41397,3.42 10.431,8.44809 13.37118,11.17353 l 5.34579,4.95535 -4.0417,-7.62846 c -2.22294,-4.19565 -5.17663,-9.30085 -6.56376,-11.34489 -2.82991,-4.17011 -3.11713,-5.43735 -1.23238,-5.43735 1.96617,0 14.03143,12.89987 18.28618,19.55111 2.07566,3.24477 3.90306,5.46068 4.06089,4.92424 6.11607,-20.78795 8.55125,-62.43105 4.67675,-79.97535 -2.8391,-12.85584 -3.36526,-12.47047 -8.19206,6 -9.49207,36.32282 -9.95185,37.42813 -11.34931,27.28382 -3.36638,-24.43703 5.30838,-65.9512 15.87797,-75.98605 6.77042,-6.4279 14.6932,-12.79777 15.91771,-12.79777 0.65302,0 1.71512,-0.63596 2.36021,-1.41325 0.64509,-0.77728 5.438,-3.28378 10.65091,-5.56998 9.81043,-4.30252 10.22974,-4.39208 49.42109,-10.55618 9.075,-1.42734 21.675,-3.64672 28,-4.93197 32.05013,-6.51261 35.40548,-6.99666 48.5,-6.99666 9.56043,0 16.17499,0.62054 25,2.34536 6.6,1.28995 18.525,3.61806 26.5,5.17358 7.975,1.55552 22.15,3.98082 31.5,5.38956 34.54439,5.20469 37.33883,5.94766 50.82403,13.51286 15.92108,8.93174 27.46013,20.37798 30.28719,30.04359 5.98436,20.4603 9.31251,66.25845 4.88878,67.27361 -0.55,0.12621 -2.02972,-4.27052 -3.28826,-9.77052 -2.35008,-10.27013 -8.53718,-32.06417 -10.35578,-36.4782 -3.96715,-9.62888 -7.45609,29.55032 -4.78975,53.78662 1.10558,10.04943 4.80232,32.12475 5.60077,33.44538 0.55964,0.92563 4.491,-3.68024 6.61829,-7.7538 2.00698,-3.84319 15.43103,-17.11703 16.36559,-16.18247 0.80028,0.80028 -0.60037,3.75739 -7.14418,15.08306 -4.32037,7.47747 -4.40735,7.77202 -1.62403,5.5 1.61744,-1.32033 5.44864,-4.42559 8.51377,-6.90059 3.06513,-2.475 9.03502,-7.3125 13.26642,-10.75 4.2314,-3.4375 8.29786,-6.25 9.03657,-6.25 2.28088,0 -7.13429,15.91013 -18.00101,30.41884 -6.42512,8.5785 -18.66154,31.81747 -29.14258,55.34655 -8.77014,19.68826 -18.27514,32.11021 -33.32781,43.55563 -1.5004,1.14084 -5.65301,4.61799 -9.22801,7.72699 -14.54186,12.64633 -35.79545,24.97356 -51.5,29.87036 -13.45201,4.19444 -32.26506,14.77788 -29.71403,16.71588 9.07889,6.89718 80.24342,-23.30082 110.44766,-46.86742 3.86697,-3.01717 4.3854,-1.64822 1.09078,2.88026 -7.3967,10.16684 -35.70175,32.4183 -52.82441,41.52688 l -9,4.78765 10.14951,0.0192 c 11.72569,0.0222 7.84472,1.87772 36.64069,-17.51843 5.38461,-3.62692 13.57413,-9.6022 18.19895,-13.27839 4.62481,-3.67619 12.33962,-9.60899 17.14401,-13.18399 21.78267,-16.2087 28.18213,-30.992 37.27348,-86.10493 2.30999,-14.00348 15.72466,-47.41485 22.34787,-55.66096 2.64946,-3.29866 -0.76489,-18.38063 -7.74694,-34.22 -6.1607,-13.97605 -11.29871,-26.48633 -13.35366,-32.51411 -4.55832,-13.37092 -12.10964,-37.58891 -14.62935,-46.91807 -1.47333,-5.45495 -3.94262,-13.10495 -5.48733,-17 -1.5447,-3.89506 -4.25282,-11.80693 -6.01805,-17.58193 -8.76291,-28.66815 -10.92007,-37.55658 -13.95482,-57.5 -4.25166,-27.94061 -11.507,-50.07839 -18.51706,-56.5 -1.501,-1.375 -4.36806,-4.75 -6.37125,-7.5 -19.69819,-27.0419 -54.51597,-58.37257 -74.17605,-66.7471 -2.475,-1.05426 -5.85,-2.51592 -7.5,-3.24812 -6.61176,-2.93403 -15.1363,-3.76303 -31.21192,-3.03533 -20.05881,0.908 -25.19629,0.91134 -44.78808,0.0291 -24.35425,-1.09674 -37.01001,2.45814 -54.09439,15.1946 -1.70192,1.26878 -3.50192,2.31088 -4,2.31577 -4.49174,0.0441 -43.41948,38.68921 -54.22861,53.83493 -1.82765,2.5609 -4.82832,6.23118 -6.66815,8.15618 -9.16843,9.59286 -15.00482,28.26992 -19.06185,61 -1.06913,8.62515 -3.55403,19.59161 -7.47751,33 -6.81658,23.29549 -8.07684,27.23622 -11.99267,37.5 -2.09836,5.5 -4.12105,11.575 -4.49488,13.5 -0.37383,1.925 -2.62779,9.575 -5.0088,17 -2.38101,7.425 -5.30829,16.875 -6.50505,21 -2.54039,8.75617 -13.13321,35.96696 -18.49115,47.5 -3.51166,7.5589 -5.40288,13.79279 -7.51551,24.77282 -0.90064,4.68093 -0.77574,5.05107 6.4868,19.22454 10.51841,20.52756 16.12723,38.44241 19.09882,61.00264 4.39871,33.39488 15.29514,55.53227 33.96304,69 3.81184,2.75 10.38028,7.78707 14.59654,11.1935 4.21627,3.40642 12.77961,9.66409 19.02965,13.90593 7.78375,6.17802 16.19643,11.17028 24.52477,16.40057 4.3517,2.75976 23.33895,4.80385 23.33895,2.51257 z m -64,-310.33473 c 0,-2.68822 14.74383,-14.01577 27,-20.74385 4.125,-2.26444 10.2,-5.66607 13.5,-7.55918 13.45452,-7.71846 29.42251,-11.65516 50.5,-12.45011 7.425,-0.28004 19.125,-1.26436 26,-2.18739 16.04822,-2.15461 38.95823,-2.1541 55,0.001 6.875,0.92371 18.8,1.91268 26.5,2.19771 30.54818,1.1308 71.80426,18.63882 87.88028,37.29412 3.71322,4.30898 2.9724,5.009 -1.44634,1.3667 -7.70596,-6.35191 -45.48835,-25.12656 -56.93394,-28.29136 -6.98774,-1.93217 -9.07094,-2.02631 -30.5,-1.37828 -12.65,0.38254 -40.775,0.56299 -62.5,0.401 -71.1571,-0.53058 -70.66618,-0.54336 -77.91779,2.02915 -11.10892,3.94089 -44.24429,20.93784 -52.33221,26.84405 -2.6125,1.90778 -4.75,3.02207 -4.75,2.4762 z m 109.30028,161.19448 4.57942,-0.62768 -7.63005,-10.12232 c -17.2184,-22.8426 -52.02247,-51.18284 -56.88501,-46.32029 -4.33338,4.33337 17.30693,45.00149 27.97882,52.57994 6.08313,4.31982 19.47362,6.20136 31.95682,4.49035 z m 99.36432,-2.3421 c 11.55328,-5.11057 39.94083,-55.03022 31.29374,-55.03022 -9.07828,0 -39.4793,23.63615 -51.44095,39.99426 -1.10956,1.51738 -4.41656,5.85192 -7.34887,9.63231 l -5.33149,6.87343 2.83149,0.69823 c 5.28871,1.30418 25.43904,-0.15222 29.99608,-2.16801 z"
       id="path2"
       inkscape:label="black"
       sodipodi:nodetypes="scssssssssscssscsssssssssssssssssssssssssssscsssssssssssssssscssssssssscccscsscscssssssscsssscccsssssssssccsssssssscccsssssssssssssssssssssssccssssssssssssssssssssscsssssssssscssssssssscsssscssscssssssssssssssscsscssssssssssssssssssssssssssssscsssssssssssssssssssssssssssssssssssssssssssscssssssssssssssssssssssssssssssssssssssssscsssssssssssssssssssssssssssssssssssssscsssssssssssssccscsssssssscss" />
    <path
       style="display:inline;fill:#ffffff;fill-opacity:1"
       d="m 551.49287,550.82445 c -13.54582,-1.54555 -32.16923,-25.78736 -38.01773,-49.4871 -2.15948,-8.75085 -2.05719,-8.77025 11.27277,-2.13756 13.52939,6.73193 30.3761,22.28524 44.65115,41.22307 l 7.63005,10.12232 -4.57942,0.62768 c -5.40105,0.7403 -12.44064,0.62326 -20.95682,-0.34841 z m 90.32506,0.17432 -2.83149,-0.69823 5.33149,-6.87343 c 2.93231,-3.78039 6.23931,-8.11493 7.34887,-9.63231 11.96165,-16.35811 42.36267,-39.99426 51.44095,-39.99426 5.08211,0 -12.80506,38.26393 -22.72865,48.62077 -7.10163,7.41167 -26.1271,11.64366 -38.56117,8.57746 z"
       id="path8"
       inkscape:label="eyes"
       sodipodi:nodetypes="sssscssscsssss" />
    <path
       style="display:inline;fill:#03ffe4;fill-opacity:1"
       d="m 238.02583,958.88099 c -10.77838,-2.15509 -23.09847,-16.4803 -27.4,-31.8594 -2.67865,-9.57689 -0.86486,-12.78238 2.93675,-5.1901 6.1049,12.19222 11.8493,18.34417 22.8919,24.51599 11.92404,6.66448 12.94496,14.80762 1.57135,12.53351 z m 732.22194,-0.89667 c -1.44967,-2.70873 3.15894,-8.41556 9.53301,-11.80469 5.98752,-3.18359 15.82233,-11.62549 17.69822,-15.1916 0.77754,-1.47812 2.7926,-5.35577 4.4779,-8.61701 2.8574,-5.52921 3.108,-5.75536 3.7118,-3.34974 2.5912,10.32413 -12.23033,34.32206 -23.92528,38.73807 -5.68786,2.14774 -10.41709,2.24029 -11.49565,0.22497 z m -18.2135,-78.98215 c -15.15115,-11.42515 -52.35671,-26.20163 -65.97283,-26.20163 h -2.91203 v -7.87789 -7.87789 l 6.60134,1.38375 c 7.10524,1.48939 19.81903,6.71849 26.33311,10.83065 2.21419,1.39776 4.31917,2.54138 4.67773,2.54138 1.56096,0 20.43062,14.26069 25.95751,19.61731 8.46869,8.20778 11.07633,11.92869 5.31517,7.58432 z m -685.8507,-4.80122 c 15.1305,-15.50076 42.13575,-31.62738 59.79368,-35.70676 l 6.17216,-1.42591 v 7.74963 7.74964 l -6.73322,0.72106 c -12.71463,1.36162 -31.59695,8.59306 -50.81451,19.46064 -15.02854,8.49869 -15.35106,8.5543 -8.41811,1.4517 z M 447.64941,700.734 c -18.04624,-9.85478 -52.75635,-46.76209 -53.25828,-51.50764 5.90203,2.93158 40.61453,36.31945 77.39606,51.52559 z m 106.22045,-5.58545 c -34.88976,-11.80458 -61.82991,-27.56866 -78.37954,-37.74432 -25.96245,-19.84162 -45.53752,-57.1346 -35.61976,-47.85369 14.38252,12.84719 41.55661,43.64067 59.65673,51.199 6.1864,2.58335 14.64904,6.98176 18.80587,9.77425 12.56544,8.44125 43.55635,21.48032 55.32347,24.10287 8.32577,1.85558 6.73269,2.27466 4.8014,3.73897 -2.44734,2.02219 -10.04341,2.11918 -24.58817,-3.21708 z m 86.4778,4.15655 c -5.52327,-0.61807 -2.27557,-2.18626 2.89135,-4.50456 59.21605,-27.69743 98.22223,-43.9415 133.31467,-85.72144 3.72317,4.96527 -19.02227,35.7651 -42.24089,51.68205 -25.34248,17.37291 -84.91751,41.80816 -93.96513,38.54395 z M 821.7429,648.90834 c -8.46262,13.02519 -26.1453,30.32259 -53.04804,51.8922 l -23.83381,-0.18509 c 36.54702,-18.30189 70.92601,-49.40719 76.88185,-51.70711 z M 760.82302,527.04869 c -4.21995,-11.73815 -4.56043,-54.99683 -0.55512,-70.52832 2.37006,-9.1904 4.88141,0.53872 3.69301,14.30692 -0.49719,5.76029 -1.22447,21.27325 -1.61616,34.47325 -0.4243,14.29847 -1.03943,23.08973 -1.52173,21.74815 z M 453.84283,507.80054 c -0.38058,-10.725 -1.21388,-26.3639 -1.85179,-34.75311 -1.64277,-21.60443 0.79122,-27.46454 4.46371,-10.74689 3.26429,14.85948 3.00407,36.23787 -0.70479,57.90197 -1.21502,7.09714 -1.21526,7.09557 -1.90713,-12.40197 z m 18.18615,-122.35771 c 5.34112,-4.02501 45.35004,-23.55591 49.28655,-24.05991 1.95438,-0.25022 6.42902,-1.2059 9.94364,-2.12373 4.9669,-1.29708 8.28351,-1.50243 14.89024,-0.92195 13.52149,1.18803 93.63623,1.42359 114.5,0.33666 17.67444,-0.92077 19.48598,-0.85143 25.9659,0.99399 3.83124,1.0911 7.3658,1.73666 7.85458,1.43458 0.48878,-0.30208 11.30412,4.69225 24.0341,11.09852 33.6966,16.95755 35.67419,19.15415 9.50128,10.55346 -31.0383,-10.19951 -43.27579,-12.93926 -57.85586,-12.95287 -5.31935,-0.005 -11.71593,-1.07431 -22,-3.67784 -11.4052,-2.88736 -16.42091,-3.6696 -23.5,-3.66503 -19.85836,0.0128 -25.35305,0.009 -33.5,-0.0246 -6.55011,-0.0269 -11.90015,0.81406 -23.322,3.66579 -10.17923,2.54147 -17.0704,3.70191 -22,3.70467 -10.04139,0.006 -23.29839,2.33343 -37.26214,6.54288 -6.55372,1.97566 -14.61586,4.38974 -17.91586,5.36463 -3.3,0.97489 -7.62083,2.46779 -9.60185,3.31757 -1.98102,0.84977 -5.58102,1.86341 -8,2.25252 l -4.39815,0.70746 z m 60.87289,-84.79475 c 2.27447,-2.27447 22.45375,-12.44681 30.74754,-15.49978 45.19451,-16.63625 61.09709,-15.33558 107.5,8.79241 15.60964,8.11649 17.09552,9.71409 5.5,5.91349 -17.53695,-5.74799 -42.66412,-9.71644 -54,-8.52848 -13.09209,1.37201 -17.99135,1.43087 -25.53593,0.30679 -11.99949,-1.78783 -43.20779,2.70433 -59.8398,8.61341 -5.2309,1.85845 -5.8886,1.91895 -4.37181,0.40216 z"
       id="path9"
       inkscape:label="blue"
       sodipodi:nodetypes="sssssssssssssscccssssssscccssscccccccssscccccscccccsssssssssssssssssssssssscsssscsssssssss" />
    <path
       style="opacity:1;fill:#03ffe4;fill-opacity:1;stroke:#000000;stroke-width:0;stroke-linecap:round;stroke-linejoin:round;stroke-miterlimit:0.1;paint-order:stroke fill markers"
       d="m 883.32474,942.03494 0.0165,11.91972 c 0,0 2.5013,-1.77754 11.53484,-5.65292 18.27538,-7.84011 28.32127,-16.04609 28.32327,-16.93234 0.003,-1.30173 -4.56417,1.68134 -21.31681,6.58199 -8.41644,2.31281 -12.48655,2.78546 -18.5578,4.08355 z"
       id="path11"
       sodipodi:nodetypes="ccsscc" />
    <path
       style="opacity:1;fill:#03ffe4;fill-opacity:1;stroke:#000000;stroke-width:0;stroke-linecap:round;stroke-linejoin:round;stroke-miterlimit:0.1;paint-order:stroke fill markers"
       d="m 941.77575,810.44994 35.9418,31.54333 c 0,0 -5.27816,-17.84523 -17.0912,-25.13413 -11.81304,-7.2889 -18.8506,-6.4092 -18.8506,-6.4092 z"
       id="path12" />
    <path
       style="opacity:1;fill:#03ffe4;fill-opacity:1;stroke:#000000;stroke-width:0;stroke-linecap:round;stroke-linejoin:round;stroke-miterlimit:0.1;paint-order:stroke fill markers"
       d="m 848.94604,701.5077 15.32178,0.83414 c 0.1274,-0.23789 10.22305,-21.76917 10.88266,-27.51905 0.26715,-2.32875 1.22749,-5.79491 -1.11983,-4.32012 -1.20486,0.757 -4.186,8.20965 -8.6443,14.54856 -7.50339,10.66849 -16.44031,16.45647 -16.44031,16.45647 z"
       id="path13"
       sodipodi:nodetypes="ccsssc" />
    <path
       style="fill:#03ffe4;fill-opacity:1;stroke:#000000;stroke-width:0;stroke-linecap:round;stroke-linejoin:round;stroke-miterlimit:0.1;stroke-opacity:0;paint-order:stroke fill markers"
       d="m 354.46141,702.14471 12.54868,-0.40635 c -8.98979,-7.98184 -17.71408,-17.31376 -25.29933,-32.43782 0.77453,9.22886 -1.90397,8.99703 12.75065,32.84417 z"
       id="path1"
       sodipodi:nodetypes="cccc" />
    <path
       style="fill:#03ffe4;fill-opacity:1;stroke:#000000;stroke-width:0;stroke-linecap:round;stroke-linejoin:round;stroke-miterlimit:0.1;stroke-opacity:0;paint-order:stroke fill markers"
       d="m 333.42309,743.90331 0.13125,-8.39608 c -8.8705,-1.11619 -18.83881,0.79035 -29.90493,5.71962 7.89679,0.38317 15.1471,0.60407 29.77368,2.67646 z"
       id="path14"
       sodipodi:nodetypes="cccc" />
    <path
       style="fill:#03ffe4;fill-opacity:1;stroke:#000000;stroke-width:0;stroke-linecap:round;stroke-linejoin:round;stroke-miterlimit:0.1;stroke-opacity:0;paint-order:stroke fill markers"
       d="m 507.47099,699.22357 c 7.26543,2.03968 16.10994,3.51171 19.61502,1.30658 -41.1983,-27.4582 -45.06665,-30.8339 -52.97736,-37.77919 0,0 -0.54564,6.27177 33.36234,36.47261 z"
       id="path15"
       sodipodi:nodetypes="cccc" />
    <path
       style="fill:#03ffe4;fill-opacity:1;stroke:#000000;stroke-width:0;stroke-linecap:round;stroke-linejoin:round;stroke-miterlimit:0.1;stroke-opacity:0;paint-order:stroke fill markers"
       d="m 881.93725,744.07649 c 7.40803,-1.43251 17.64542,-2.36842 30.71216,-2.80773 -6.49796,-3.58731 -16.76759,-5.097 -30.8089,-4.52908 z"
       id="path16"
       sodipodi:nodetypes="cccc" />
    <path
       style="fill:#03ffe4;fill-opacity:1;stroke:#000000;stroke-width:0;stroke-linecap:round;stroke-linejoin:round;stroke-miterlimit:0.1;stroke-opacity:0;paint-order:stroke fill markers"
       d="m 332.14941,952.11712 v -10.1289 c -13.93279,-2.24039 -27.49333,-6.50732 -40.68161,-12.80077 11.67413,10.11464 25.23467,17.75787 40.68161,22.92967 z"
       id="path17"
       sodipodi:nodetypes="cccc" />
    <path
       style="fill:#03ffe4;fill-opacity:1;stroke:#000000;stroke-width:0;stroke-linecap:round;stroke-linejoin:round;stroke-miterlimit:0.1;stroke-opacity:0;paint-order:stroke fill markers"
       d="m 687.64941,700.76216 c 5.66036,-0.0544 7.63878,0.48629 20.22718,-0.68773 14.02095,-13.27687 24.53368,-24.9144 31.5382,-34.91261 -10.90212,9.69598 -23.31186,19.9071 -51.76538,35.60034 z"
       id="path18"
       sodipodi:nodetypes="cccc" />
  </g>
</svg>
