<?xml version="1.0" encoding="UTF-8" standalone="no"?>
<!-- Created with Inkscape (http://www.inkscape.org/) -->

<svg
   width="256"
   height="256"
   viewBox="0 0 256 256"
   version="1.1"
   id="svg1"
   xml:space="preserve"
   inkscape:version="1.4 (86a8ad7, 2024-10-11)"
   sodipodi:docname="menu_icon.svg"
   xmlns:inkscape="http://www.inkscape.org/namespaces/inkscape"
   xmlns:sodipodi="http://sodipodi.sourceforge.net/DTD/sodipodi-0.dtd"
   xmlns="http://www.w3.org/2000/svg"
   xmlns:svg="http://www.w3.org/2000/svg"><sodipodi:namedview
     id="namedview1"
     pagecolor="#505050"
     bordercolor="#ffffff"
     borderopacity="1"
     inkscape:showpageshadow="0"
     inkscape:pageopacity="0"
     inkscape:pagecheckerboard="1"
     inkscape:deskcolor="#d1d1d1"
     inkscape:document-units="px"
     showguides="false"
     inkscape:zoom="1"
     inkscape:cx="143"
     inkscape:cy="139"
     inkscape:window-width="1920"
     inkscape:window-height="1057"
     inkscape:window-x="1358"
     inkscape:window-y="-8"
     inkscape:window-maximized="1"
     inkscape:current-layer="layer1"><sodipodi:guide
       position="127,256"
       orientation="1,0"
       id="guide9"
       inkscape:locked="false" /><sodipodi:guide
       position="-1.0000029,128"
       orientation="0,-1"
       id="guide10"
       inkscape:locked="false" /></sodipodi:namedview><defs
     id="defs1" /><g
     inkscape:label="Layer 1"
     inkscape:groupmode="layer"
     id="layer1"
     transform="translate(-1.0000029,-1.0000029)"><g
       id="g12"
       transform="matrix(1.0039216,0,0,1.0039216,-0.0039216,-0.0039216)"><circle
         style="fill:#818799;fill-opacity:1;stroke:#23f3f1;stroke-width:4.88505;stroke-linecap:round;stroke-linejoin:round;stroke-miterlimit:0.1;stroke-dasharray:none;stroke-opacity:1;paint-order:stroke fill markers"
         id="path9"
         cx="128.5"
         cy="128.5"
         r="125.05747" /><path
         style="display:inline;fill:#b61136;fill-opacity:1;stroke:#fd5591;stroke-width:2;stroke-linecap:square;stroke-linejoin:miter;stroke-miterlimit:15;stroke-dasharray:none;stroke-opacity:1;paint-order:stroke fill markers"
         d="M 26.587367,207.27938 C 48.739014,165.80479 67.039697,132.82891 99.918065,67.681479 108.29994,77.085656 119.25512,80.868747 129.68151,85.806912 116.18941,74.488957 107.39196,66.152294 103.28916,60.796922 112.09856,42.314903 120.91181,24.372565 129.68151,3.7451875 150.21623,61.17888 178.6743,110.22475 205.33965,161.4249 c -8.44514,-5.33575 -17.18008,-8.32448 -26.2048,-8.9662 15.97866,7.12804 25.70781,16.14454 35.05072,25.27775 l 16.15857,29.71747 c -22.25192,-15.11523 -45.70224,-25.02106 -70.35095,-29.7175 -2.10722,-19.46721 -2.10189,-39.8787 0.016,-61.23447 -20.72283,2.25625 -41.44566,1.9164 -62.168484,0 l 1.37612,19.21909 h 42.059014 v 3.39049 H 99.328886 c 0.348756,12.76983 -0.147304,25.60328 -1.48818,38.50036 -24.065629,6.66156 -48.06251,14.02862 -71.253339,29.66749 z"
         id="path10"
         sodipodi:nodetypes="cccccccccccccccccc" /><path
         style="fill:#b61136;fill-opacity:1;stroke:#fd5591;stroke-width:2;stroke-linecap:square;stroke-linejoin:miter;stroke-miterlimit:15;stroke-dasharray:none;stroke-opacity:1;paint-order:stroke fill markers"
         d="m 137.78882,175.28434 h 3.27218 v -19.99741 h -25.6887 v 3.58666 h 22.41652 z"
         id="path11" /><path
         style="fill:#fd5591;fill-opacity:0.5;stroke:#b61136;stroke-width:0;stroke-linecap:square;stroke-linejoin:miter;stroke-miterlimit:15;stroke-dasharray:none;stroke-opacity:1;paint-order:stroke fill markers"
         d="M 129.68151,85.806912 C 119.97826,80.287404 112.60988,80.36452 99.918065,67.681479 92.501095,82.363668 86.061937,94.905487 75.720457,114.96924 111.49925,96.869144 141.67059,89.482194 175.89267,105.70073 158.72385,70.496509 141.42764,39.344254 129.68151,3.4137312 124.3463,18.072159 118.89966,27.215901 103.28916,60.796922 c 8.44548,10.293665 17.54255,16.964406 26.39235,25.00999 z"
         id="path12"
         sodipodi:nodetypes="ccccccc" /></g></g></svg>
